<?xml version="1.0" encoding="UTF-8" standalone="no"?>
<svg
   width="20"
   height="20"
   xmlns="http://www.w3.org/2000/svg">
  <g transform="translate(0,-980.17471)">
    <g transform="matrix(0.27777778,0,0,0.27777778,-8e-8,708.67135)"
       style="fill:#efefef">
      <path d="m 52.28777,980.17471 c -5.021376,0 -9.093525,4.07217 -9.093525,9.09353 0,5.02135 4.072149,9.09352 9.093525,9.09352 5.021348,0 9.093525,-4.07217 9.093525,-9.09352 0,-5.02136 -4.072177,-9.09353 -9.093525,-9.09353 z M 17.007194,996.00205 C 7.6199413,996.00205 0,1003.6221 0,1013.0093 c 0,9.3872 7.6199413,17.0071 17.007194,17.0071 9.387226,0 17.007194,-7.6199 17.007194,-17.0071 0,-9.3872 -7.619968,-17.00725 -17.007194,-17.00725 z m 41.784173,24.23025 c -7.299214,0 -13.208633,5.9095 -13.208633,13.2086 0,7.2993 5.909419,13.2086 13.208633,13.2086 7.299223,0 13.208633,-5.9093 13.208633,-13.2086 0,-7.2991 -5.90941,-13.2086 -13.208633,-13.2086 z" />
      <path d="m 40.834532,990.70708 -10.877697,7.36691 c 2.096308,1.82155 3.824603,4.06951 5.007194,6.61871 l 9.841726,-6.64749 c -2.134349,-1.82606 -3.606395,-4.41028 -3.971223,-7.33813 z m 18.503597,7.71219 c -1.945148,1.50261 -4.371863,2.41733 -7.021582,2.41733 -0.350103,0 -0.693751,-0.027 -1.035971,-0.057 l 2.273381,17.8704 c 1.639376,-0.5805 3.399229,-0.9208 5.23741,-0.9208 1.043163,0 2.064069,0.094 3.05036,0.2877 l -2.503598,-19.59749 z m -23.280575,19.91363 c -0.759593,2.721 -2.097874,5.1965 -3.856115,7.3093 l 11.079137,5.4102 c 0.434748,-2.8449 1.620691,-5.4415 3.366906,-7.5683 l -10.589928,-5.1511 z" />
    </g>
  </g>
</svg>
