<?xml version="1.0" encoding="UTF-8" standalone="no"?>
<svg
   width="72"
   height="72"
   xmlns="http://www.w3.org/2000/svg">
  <g>
    <g style="fill:#000000">
      <path d="m 36.056641,40.919922 c -0.759593,2.720997 -2.097232,5.197749 -3.855469,7.310547 l 11.080078,5.410156 c 0.434748,-2.844897 1.620975,-5.441562 3.367188,-7.568359 z" />
      <path d="m 59.337891,21.007812 c -1.945145,1.502609 -4.371769,2.416016 -7.021485,2.416016 -0.350101,0 -0.692936,-0.02664 -1.035156,-0.05664 l 2.273438,17.86914 c 1.639372,-0.580499 3.398149,-0.919922 5.236328,-0.919922 1.043161,0 2.064492,0.09301 3.050781,0.28711 z" />
      <path d="m 40.833984,13.296875 -10.876953,7.365234 c 2.096304,1.821549 3.825224,4.069944 5.007813,6.619141 l 9.841797,-6.646484 c -2.134345,-1.826049 -3.607829,-4.410044 -3.972657,-7.337891 z" />
    </g>
    <g style="fill:#ff6600">
      <path d="m 58.791016,42.820312 c -7.2992,0 -13.208985,5.907939 -13.208985,13.207032 0,7.299292 5.909785,13.208984 13.208985,13.208984 C 66.090223,69.236328 72,63.326636 72,56.027344 72,48.728251 66.090223,42.820312 58.791016,42.820312 Z" />
      <path d="M 17.007812,18.591797 C 7.6205791,18.591797 0,26.210466 0,35.597656 c 0,9.387191 7.6205791,17.007813 17.007812,17.007813 9.387208,0 17.00586,-7.620622 17.00586,-17.007813 0,-9.38719 -7.618652,-17.005869 -17.00586,-17.005859 z" />
      <path d="m 52.287109,2.7636719 c -5.021366,0 -9.09375,4.072405 -9.09375,9.0937501 0,5.021335 4.072384,9.09375 9.09375,9.09375 5.021338,0 9.09375,-4.072415 9.09375,-9.09375 0,-5.0213451 -4.072412,-9.0937501 -9.09375,-9.0937501 z" />
    </g>
  </g>
</svg>
